:SAMPLES-PER-SECOND 30
:FULLY-SPECIFIED
:DEGREES
66
root  5.84888 39.7592 1.93459 21.4541 -84.2137 -25.1923
RightUpLeg  0.922156 -8.88661 -6.56448
RightLeg  7.67756 -7.82769 -0.962936
RightFoot  -0.253337 -1.165 11.9455
RightToes  1.16414e-010 0 -3.6325e-017
Spine  7.30954 -1.73004 4.27671
Spine1  7.76088 -0.466981 -2.46056
HEad  -14.2261 -7.41143 0.829945
LeftShoulder1  1.3182 -4.3694 -9.3658
LeftArm  44.9817 30.8503 -35.9777
LeftForeArm  87.9988 -76.5742 -35.4453
LeftHand  -1.06829 2.53641 42.2119
RightShoulder  1.2346 2.34806 14.2667
RightArm  44.5086 -28.8835 28.1483
RightForeArm  122.615 81.5056 86.1761
RightHand  -0.935463 10.5719 -7.12125
LeftUpLeg  -4.61984 9.08877 16.1132
LeftLeg  20.9028 2.15422 1.2407
LeftFoot  -1.49971 1.66564 -19.088
LeftToes  7.09373e-011 9.9627e-011 8.96859e-012
67
root  5.76638 39.7385 1.69047 22.542 -83.6337 -26.3118
RightUpLeg  0.95992 -8.64041 -5.77704
RightLeg  8.09162 -8.57446 -1.08845
RightFoot  -0.653285 -1.10055 11.6806
RightToes  1.16414e-010 0 -3.6325e-017
Spine  7.36882 -1.85393 4.84656
Spine1  7.46596 -0.589637 -2.29327
HEad  -13.2706 -8.72328 1.39487
LeftShoulder1  1.35181 -4.47254 -9.59619
LeftArm  44.4344 30.5134 -35.7407
LeftForeArm  76.4224 -73.4384 -28.2218
LeftHand  -0.925494 2.91051 42.1895
RightShoulder  1.22504 2.29546 14.2963
RightArm  42.892 -29.2203 27.6143
RightForeArm  99.4572 80.6987 72.45
RightHand  0.236051 9.84645 1.40513
LeftUpLeg  -4.93336 7.17588 17.1001
LeftLeg  20.8331 0.972063 0.72969
LeftFoot  -2.14158 1.47052 -17.985
LeftToes  7.09373e-011 9.9627e-011 8.96859e-012
68
root  5.62796 39.7805 1.54406 26.0833 -83.9278 -29.9302
RightUpLeg  1.43494 -8.38291 -5.27641
RightLeg  7.48579 -8.55528 -0.985602
RightFoot  -0.589559 -1.0793 11.3918
RightToes  1.16414e-010 0 -3.6325e-017
Spine  7.17015 -1.76147 5.24931
Spine1  7.20616 -0.489718 -2.48191
HEad  -11.8105 -9.64379 1.93162
LeftShoulder1  1.34678 -4.31994 -9.89186
LeftArm  42.9688 30.4296 -36.1554
LeftForeArm  66.4922 -69.697 -22.7346
LeftHand  -0.87217 3.05824 42.314
RightShoulder  1.2063 2.26686 14.0535
RightArm  41.1924 -28.9683 27.6242
RightForeArm  71.7366 78.6394 55.082
RightHand  0.924273 8.85348 7.03839
LeftUpLeg  -3.45761 5.46982 17.7359
LeftLeg  17.5867 2.32839 1.13915
LeftFoot  -2.35858 1.34689 -16.8729
LeftToes  7.09373e-011 9.9627e-011 8.96859e-012
69
root  5.4672 39.8121 1.51827 32.5484 -84.3254 -36.379
RightUpLeg  1.90907 -8.13155 -4.8075
RightLeg  6.66869 -8.30802 -0.799645
RightFoot  -0.39931 -1.07545 11.1666
RightToes  1.16414e-010 0 -3.6325e-017
Spine  6.87056 -1.69845 5.7252
Spine1  6.70061 -0.487415 -2.49704
HEad  -10.1198 -10.0973 2.20657
LeftShoulder1  1.32165 -4.13355 -9.99226
LeftArm  40.6323 30.7973 -37.5735
LeftForeArm  57.5974 -65.3794 -18.5298
LeftHand  -0.887084 3.02619 42.4333
RightShoulder  1.1917 2.26627 13.7763
RightArm  39.4634 -28.3774 28.0685
RightForeArm  47.5945 74.8592 39.4291
RightHand  1.00198 8.68236 7.84078
LeftUpLeg  -1.32409 4.84652 18.008
LeftLeg  12.9806 4.831 2.17847
LeftFoot  -1.47025 1.48117 -16.9364
LeftToes  7.09373e-011 9.9627e-011 8.96859e-012
70
root  5.31695 39.8169 1.58518 38.6523 -84.3477 -42.2452
RightUpLeg  2.09916 -7.77548 -4.28277
RightLeg  6.05055 -8.39624 -0.820177
RightFoot  -0.218151 -1.09112 11.1568
RightToes  1.16414e-010 0 -3.6325e-017
Spine  6.50358 -1.74859 5.95471
Spine1  5.95849 -0.760371 -1.88838
HEad  -8.54577 -10.2576 2.13738
LeftShoulder1  1.31117 -4.08275 -9.96756
LeftArm  37.8007 31.2432 -39.9216
LeftForeArm  48.8232 -60.3729 -15.1953
LeftHand  -0.954217 2.81556 41.8922
RightShoulder  1.20155 2.27644 13.9244
RightArm  37.8194 -27.6426 28.4366
RightForeArm  32.2765 70.0991 29.0867
RightHand  0.630415 8.77387 4.76613
LeftUpLeg  0.247475 6.44888 17.8043
LeftLeg  9.29915 5.18792 3.42985
LeftFoot  -0.417894 1.67855 -17.42
LeftToes  7.09373e-011 9.9627e-011 8.96859e-012
71
root  5.19308 39.8394 1.68712 41.7969 -84.3072 -44.9533
RightUpLeg  2.10633 -7.40579 -3.97772
RightLeg  5.37713 -8.67979 -0.964854
RightFoot  0.0583658 -1.133 11.3208
RightToes  1.16414e-010 0 -3.6325e-017
Spine  5.97674 -1.78124 5.44604
Spine1  5.43246 -1.18653 -0.682575
HEad  -7.51392 -10.2161 1.93283
LeftShoulder1  1.32266 -4.06744 -10.176
LeftArm  34.5729 31.1405 -42.853
LeftForeArm  40.3276 -54.5774 -12.4201
LeftHand  -1.11197 2.28729 40.5169
RightShoulder  1.22668 2.25156 14.5066
RightArm  35.9845 -26.7518 28.8804
RightForeArm  23.7459 65.2532 22.7448
RightHand  -0.0181085 7.79208 -0.56337
LeftUpLeg  1.07181 8.05322 17.4848
LeftLeg  7.16201 4.47655 4.0608
LeftFoot  -0.0990861 1.72394 -17.3969
LeftToes  7.09373e-011 9.9627e-011 8.96859e-012
